<mxfile>
    <diagram id="AbFpHW7fQtN4yhbFAR11" name="Page-1">
        <mxGraphModel dx="931" dy="604" grid="1" gridSize="10" guides="1" tooltips="1" connect="1" arrows="1" fold="1" page="1" pageScale="1" pageWidth="850" pageHeight="1100" math="0" shadow="0">
            <root>
                <mxCell id="0"/>
                <mxCell id="1" parent="0"/>
                <mxCell id="7" value="Summaries" style="rounded=1;whiteSpace=wrap;html=1;sketch=1;fillColor=#dae8fc;strokeColor=#6c8ebf;fontSize=18;" parent="1" vertex="1">
                    <mxGeometry x="110" y="330" width="120" height="50" as="geometry"/>
                </mxCell>
                <mxCell id="8" value="Counters" style="rounded=1;whiteSpace=wrap;html=1;sketch=1;fillColor=#dae8fc;strokeColor=#6c8ebf;fontSize=18;" parent="1" vertex="1">
                    <mxGeometry x="110" y="390" width="120" height="50" as="geometry"/>
                </mxCell>
                <mxCell id="9" value="Histograms" style="rounded=1;whiteSpace=wrap;html=1;sketch=1;fillColor=#dae8fc;strokeColor=#6c8ebf;fontSize=18;" parent="1" vertex="1">
                    <mxGeometry x="110" y="270" width="120" height="50" as="geometry"/>
                </mxCell>
                <mxCell id="10" value="Gauges" style="rounded=1;whiteSpace=wrap;html=1;sketch=1;fillColor=#dae8fc;strokeColor=#6c8ebf;fontSize=18;" parent="1" vertex="1">
                    <mxGeometry x="110" y="450" width="120" height="50" as="geometry"/>
                </mxCell>
                <mxCell id="16" value="" style="endArrow=classic;html=1;fontSize=16;exitX=1;exitY=0.5;exitDx=0;exitDy=0;sketch=1;" parent="1" edge="1">
                    <mxGeometry x="0.0222" y="15" width="50" height="50" relative="1" as="geometry">
                        <mxPoint x="235" y="294.5" as="sourcePoint"/>
                        <mxPoint x="431" y="295" as="targetPoint"/>
                        <mxPoint y="1" as="offset"/>
                    </mxGeometry>
                </mxCell>
                <mxCell id="26" value="注册 &amp;amp; 收集" style="text;html=1;strokeColor=none;fillColor=none;align=center;verticalAlign=middle;whiteSpace=wrap;rounded=0;sketch=1;fontFamily=Times New Roman;fontSize=16;" parent="1" vertex="1">
                    <mxGeometry x="280" y="270" width="110" height="20" as="geometry"/>
                </mxCell>
                <mxCell id="28" value="CollectorRegistry" style="shape=process;whiteSpace=wrap;html=1;backgroundOutline=1;rounded=0;sketch=1;fontFamily=Times New Roman;fontSize=24;fillColor=#fff2cc;strokeColor=#d6b656;fontColor=#FF0000;fontStyle=1" parent="1" vertex="1">
                    <mxGeometry x="440" y="270" width="255" height="290" as="geometry"/>
                </mxCell>
                <mxCell id="30" value="&lt;font style=&quot;font-size: 20px&quot;&gt;generate_latest&lt;/font&gt;" style="shape=hexagon;perimeter=hexagonPerimeter2;whiteSpace=wrap;html=1;fixedSize=1;rounded=0;sketch=1;fontFamily=Times New Roman;fontSize=18;fillColor=#b1ddf0;strokeColor=#10739e;" parent="1" vertex="1">
                    <mxGeometry x="487.5" y="640" width="160" height="80" as="geometry"/>
                </mxCell>
                <mxCell id="32" value="收集" style="endArrow=classic;html=1;fontFamily=Times New Roman;fontSize=18;fontColor=#000000;sketch=1;entryX=0.5;entryY=0;entryDx=0;entryDy=0;exitX=0.5;exitY=1;exitDx=0;exitDy=0;" parent="1" source="28" target="30" edge="1">
                    <mxGeometry width="50" height="50" relative="1" as="geometry">
                        <mxPoint x="707.5" y="690" as="sourcePoint"/>
                        <mxPoint x="617.5" y="440" as="targetPoint"/>
                    </mxGeometry>
                </mxCell>
                <mxCell id="33" value="Html&lt;br&gt;Output" style="ellipse;whiteSpace=wrap;html=1;rounded=0;sketch=1;fontFamily=Times New Roman;fontSize=18;fillColor=#ffcc99;strokeColor=#36393d;" parent="1" vertex="1">
                    <mxGeometry x="110" y="640" width="120" height="80" as="geometry"/>
                </mxCell>
                <mxCell id="34" value="" style="endArrow=classic;html=1;fontFamily=Times New Roman;fontSize=18;fontColor=#000000;sketch=1;exitX=0;exitY=0.5;exitDx=0;exitDy=0;entryX=1;entryY=0.5;entryDx=0;entryDy=0;" parent="1" source="30" target="33" edge="1">
                    <mxGeometry width="50" height="50" relative="1" as="geometry">
                        <mxPoint x="490" y="550" as="sourcePoint"/>
                        <mxPoint x="540" y="500" as="targetPoint"/>
                    </mxGeometry>
                </mxCell>
                <mxCell id="35" value="Collectors" style="rounded=1;whiteSpace=wrap;html=1;sketch=1;fillColor=#dae8fc;strokeColor=#6c8ebf;fontSize=18;" vertex="1" parent="1">
                    <mxGeometry x="110" y="510" width="120" height="50" as="geometry"/>
                </mxCell>
                <mxCell id="41" value="" style="endArrow=classic;html=1;fontSize=16;exitX=1;exitY=0.5;exitDx=0;exitDy=0;sketch=1;" edge="1" parent="1">
                    <mxGeometry x="0.0222" y="15" width="50" height="50" relative="1" as="geometry">
                        <mxPoint x="237" y="354.5" as="sourcePoint"/>
                        <mxPoint x="433" y="355" as="targetPoint"/>
                        <mxPoint y="1" as="offset"/>
                    </mxGeometry>
                </mxCell>
                <mxCell id="42" value="注册 &amp;amp; 收集" style="text;html=1;strokeColor=none;fillColor=none;align=center;verticalAlign=middle;whiteSpace=wrap;rounded=0;sketch=1;fontFamily=Times New Roman;fontSize=16;" vertex="1" parent="1">
                    <mxGeometry x="282" y="330" width="110" height="20" as="geometry"/>
                </mxCell>
                <mxCell id="43" value="" style="endArrow=classic;html=1;fontSize=16;exitX=1;exitY=0.5;exitDx=0;exitDy=0;sketch=1;" edge="1" parent="1">
                    <mxGeometry x="0.0222" y="15" width="50" height="50" relative="1" as="geometry">
                        <mxPoint x="237" y="414.5" as="sourcePoint"/>
                        <mxPoint x="433" y="415" as="targetPoint"/>
                        <mxPoint y="1" as="offset"/>
                    </mxGeometry>
                </mxCell>
                <mxCell id="44" value="注册 &amp;amp; 收集" style="text;html=1;strokeColor=none;fillColor=none;align=center;verticalAlign=middle;whiteSpace=wrap;rounded=0;sketch=1;fontFamily=Times New Roman;fontSize=16;" vertex="1" parent="1">
                    <mxGeometry x="282" y="390" width="110" height="20" as="geometry"/>
                </mxCell>
                <mxCell id="45" value="" style="endArrow=classic;html=1;fontSize=16;exitX=1;exitY=0.5;exitDx=0;exitDy=0;sketch=1;" edge="1" parent="1">
                    <mxGeometry x="0.0222" y="15" width="50" height="50" relative="1" as="geometry">
                        <mxPoint x="237" y="474.5" as="sourcePoint"/>
                        <mxPoint x="433" y="475" as="targetPoint"/>
                        <mxPoint y="1" as="offset"/>
                    </mxGeometry>
                </mxCell>
                <mxCell id="46" value="注册 &amp;amp; 收集" style="text;html=1;strokeColor=none;fillColor=none;align=center;verticalAlign=middle;whiteSpace=wrap;rounded=0;sketch=1;fontFamily=Times New Roman;fontSize=16;" vertex="1" parent="1">
                    <mxGeometry x="282" y="450" width="110" height="20" as="geometry"/>
                </mxCell>
                <mxCell id="47" value="" style="endArrow=classic;html=1;fontSize=16;exitX=1;exitY=0.5;exitDx=0;exitDy=0;sketch=1;" edge="1" parent="1">
                    <mxGeometry x="0.0222" y="15" width="50" height="50" relative="1" as="geometry">
                        <mxPoint x="237" y="534.5" as="sourcePoint"/>
                        <mxPoint x="433" y="535" as="targetPoint"/>
                        <mxPoint y="1" as="offset"/>
                    </mxGeometry>
                </mxCell>
                <mxCell id="48" value="注册 &amp;amp; 收集" style="text;html=1;strokeColor=none;fillColor=none;align=center;verticalAlign=middle;whiteSpace=wrap;rounded=0;sketch=1;fontFamily=Times New Roman;fontSize=16;" vertex="1" parent="1">
                    <mxGeometry x="282" y="510" width="110" height="20" as="geometry"/>
                </mxCell>
            </root>
        </mxGraphModel>
    </diagram>
</mxfile>